<svg width="15" height="8" viewBox="0 0 15 8" fill="none" xmlns="http://www.w3.org/2000/svg">
<path d="M7.56026 6.14704L13.2098 0.497514C13.3588 0.348476 13.5362 0.275876 13.742 0.279714C13.9478 0.283564 14.1252 0.360007 14.2742 0.509045C14.4232 0.658082 14.4977 0.835482 14.4977 1.04124C14.4977 1.24701 14.4232 1.42441 14.2742 1.57345L8.52082 7.31528C8.38525 7.45085 8.23333 7.55133 8.06506 7.61672C7.89679 7.68209 7.72852 7.71478 7.56026 7.71478C7.392 7.71478 7.22373 7.68209 7.05545 7.61672C6.88719 7.55133 6.73527 7.45085 6.5997 7.31528L0.846334 1.56191C0.697296 1.41288 0.624696 1.23739 0.628533 1.03547C0.632383 0.833557 0.708827 0.658082 0.857865 0.509044C1.0069 0.360007 1.1843 0.285488 1.39006 0.285488C1.59583 0.285488 1.77323 0.360007 1.92226 0.509044L7.56026 6.14704Z" fill="#333236"/>
</svg>
