<svg width="15" height="8" viewBox="0 0 15 8" fill="none" xmlns="http://www.w3.org/2000/svg">
<path d="M7.56587 1.84731L1.91635 7.49684C1.76731 7.64588 1.58991 7.71848 1.38415 7.71464C1.17837 7.71079 1.00097 7.63434 0.851947 7.48531C0.702909 7.33627 0.62839 7.15887 0.62839 6.95311C0.62839 6.74734 0.702909 6.56994 0.851947 6.42091L6.60531 0.679074C6.74088 0.543499 6.8928 0.443019 7.06107 0.377631C7.22934 0.312256 7.39761 0.279569 7.56587 0.279569C7.73413 0.279569 7.9024 0.312256 8.07068 0.377631C8.23894 0.443019 8.39086 0.543499 8.52643 0.679074L14.2798 6.43244C14.4288 6.58148 14.5014 6.75696 14.4976 6.95888C14.4937 7.16079 14.4173 7.33627 14.2683 7.48531C14.1192 7.63434 13.9418 7.70886 13.7361 7.70886C13.5303 7.70886 13.3529 7.63434 13.2039 7.48531L7.56587 1.84731Z" fill="#333236"/>
</svg>
